<svg height="297mm" width="210mm" xmlns="http://www.w3.org/2000/svg" xmlns:xlink="http://www.w3.org/1999/xlink"><radialGradient id="a" cx="375" cy="799.36218" gradientTransform="matrix(1 0 0 .11551155 0 707.02662)" gradientUnits="userSpaceOnUse" r="303"><stop offset="0" stop-color="#2e3436"/><stop offset="1" stop-color="#2e3436" stop-opacity="0"/></radialGradient><linearGradient id="b" gradientUnits="userSpaceOnUse" x1="308.8447" x2="571.93411" y1="530.55592" y2="530.55592"><stop offset="0" stop-color="#fff"/><stop offset="1" stop-opacity=".74026"/></linearGradient><linearGradient id="c" gradientUnits="userSpaceOnUse" x1="363.90555" x2="346.09439" y1="528.39771" y2="528.39771"><stop offset="0" stop-color="#babdb6"/><stop offset="1" stop-color="#fff"/></linearGradient><path d="m14.285714 120.93361h711.42859v711.42859h-711.42859z" fill="none"/><g transform="translate(-8 -48)"><path d="m678 799.36218c0 19.32997-135.65772 35-303 35s-303-15.67003-303-35c0-19.32996 135.65772-35 303-35s303 15.67004 303 35z" fill="url(#a)" transform="matrix(.85973597 0 0 1.1571429 57.09901 -120.11406)"/><path d="m155.57085 801.33928 43.89045.31216 16.65727-8.79744.25-492.44532h355.68082v499.51638h38.89087v-558.61436h-455.29619z" fill="#888a85" stroke="#555753" stroke-width="10"/><path d="m155.57085 802.04639h38.89087l.25-526.12299h377.33767v526.12298h38.89087v-560.73568h-455.29619z" fill="#555753" stroke="#2e3436" stroke-width="12"/><path d="m293.7621 233.28646 18.16575.44439 235.08886 46.22466v515.34295l-233.76184 32.25492-19.49277.27199z" fill="#c17d11" stroke="#8f5902" stroke-linejoin="round" stroke-width="9.834807"/><path d="m313.7621 233.28646 253.25461 46.66905v515.34295l-253.25461 32.52691z" fill="#e9b96e" stroke="#8f5902" stroke-linejoin="round" stroke-width="9.834807"/><path d="m324.2621 244.28646 233.25461 44.16905-.5 498.84295-233.75461 30.02691z" fill="url(#b)" opacity=".328221" stroke="#fff" stroke-width="9.835"/><g stroke="#555753" stroke-dashoffset="22.8018" stroke-linecap="round"><path d="m354 469.36218h2c9.418 0 17 7.582 17 17v77c0 9.418-7.582 17-17 17h-2c-9.418 0-17-7.582-17-17v-77c0-9.418 7.582-17 17-17z" fill="#888a85" stroke-width="7"/><path d="m361.54988 469.14211h1.74947c8.23823 0 14.87046 7.61207 14.87046 17.06741v77.30532c0 9.45534-6.63223 17.06741-14.87046 17.06741h-1.74947c-8.23823 0-14.87046-7.61207-14.87046-17.06741v-77.30532c0-9.45534 6.63223-17.06741 14.87046-17.06741z" fill="url(#c)" stroke-width="6.559868"/><path d="m369.07668 515.60565h41.07832c5.10889 0 9.22182 3.33926 9.22182 7.48712s-4.11293 7.48712-9.22182 7.48712h-41.07832c-5.10889 0-9.22182-3.33926-9.22182-7.48712s4.11293-7.48712 9.22182-7.48712z" fill="#babdb6" stroke-width="6.875005"/></g></g></svg>